#!OML:ASF E:\Mandelcareful walks\Project 1\Capture day 1\Session 1\Subject1.ASF
:FULLY-SPECIFIED
:DEGREES
774
root 12.5415 15.1429 -2.3243 -170.172 -33.1558 177.174
lowerback 42.2398 3.9532 -1.7175
upperback 7.93571 1.84647 -0.480946
thorax -11.2655 -0.0311489 -0.268147
lowerneck -23.7793 -10.2601 -13.1778
upperneck 10.2603 -11.5038 10.4219
head 8.38811 -5.05622 3.91992
rclavicle 4.09496e-014 -2.80286e-014
rhumerus -13.6935 8.69458 -74.4162
rradius 72.5537
rwrist -9.93202
rhand -11.2001 -23.0217
rfingers 7.12502
rthumb 14.8277 -52.4712
lclavicle 4.09496e-014 -2.80286e-014
lhumerus -20.848 -13.9302 70.4019
lradius 52.0255
lwrist 17.7699
lhand -27.5246 -17.0429
lfingers 7.12502
lthumb -0.926754 12.9349
rfemur -40.3019 -16.7943 -1.75848
rtibia 50.8733
rfoot -1.36965 -9.90665
rtoes -1.92226
lfemur -38.2053 14.0596 -16.9756
ltibia 62.1222
lfoot -26.8146 3.92886
ltoes -6.84399
775
root 12.3916 15.1335 -2.2721 -169.987 -33.2657 177.266
lowerback 41.9027 3.63186 -1.72106
upperback 7.9654 1.48984 -0.379402
thorax -11.13 -0.184737 0.003426
lowerneck -23.7245 -10.5663 -13.2413
upperneck 9.98308 -11.971 10.8545
head 8.37827 -5.24564 3.99765
rclavicle -2.8625e-014 1.68967e-014
rhumerus -13.951 8.25611 -74.5339
rradius 72.7765
rwrist -9.51396
rhand -10.8021 -23.113
rfingers 7.12502
rthumb 15.2111 -52.5339
lclavicle -2.8625e-014 1.68967e-014
lhumerus -20.6654 -14.1094 70.515
lradius 51.8732
lwrist 17.2064
lhand -27.7252 -16.2232
lfingers 7.12502
lthumb -1.12047 13.7536
rfemur -42.1431 -18.3379 0.0043856
rtibia 51.7369
rfoot -2.20106 -7.7496
rtoes -4.65219
lfemur -38.5138 13.4693 -17.5579
ltibia 62.5227
lfoot -27.4029 4.51459
ltoes -7.36148
776
root 12.2649 15.1442 -2.24558 -170.272 -32.5465 177.731
lowerback 41.9608 3.86618 -2.20126
upperback 7.92878 1.58095 -0.191976
thorax -11.2073 -0.143427 0.414619
lowerneck -23.6513 -10.6887 -13.1689
upperneck 9.73769 -12.2025 11.1107
head 8.32779 -5.33638 4.03593
rclavicle -1.82882e-014 -8.74653e-015
rhumerus -14.3654 7.90409 -74.7643
rradius 72.9951
rwrist -9.37705
rhand -11.1646 -23.5156
rfingers 7.12502
rthumb 14.8619 -52.9626
lclavicle -1.82882e-014 -8.74653e-015
lhumerus -20.4284 -14.3099 70.548
lradius 51.8015
lwrist 17.1173
lhand -27.4819 -15.8892
lfingers 7.12502
lthumb -0.885481 14.0887
rfemur -44.038 -18.7897 2.41344
rtibia 52.4574
rfoot -3.03568 -6.6291
rtoes -8.31565
lfemur -38.1937 13.9566 -17.6705
ltibia 62.7546
lfoot -28.0263 4.91097
ltoes -7.35236
777
root 12.146 15.1619 -2.23445 -170.357 -31.596 177.752
lowerback 42.1673 4.36825 -3.15918
upperback 7.81346 1.79343 0.00614338
thorax -11.4362 -0.0349867 1.02713
lowerneck -23.5032 -10.8449 -13.3059
upperneck 9.54949 -12.4182 11.3269
head 8.29288 -5.43252 4.09681
rclavicle -3.97569e-016 -9.74045e-015
rhumerus -14.9892 7.49271 -74.8376
rradius 73.1867
rwrist -9.25098
rhand -11.3034 -23.4964
rfingers 7.12502
rthumb 14.7282 -52.9532
lclavicle -3.97569e-016 -9.74045e-015
lhumerus -20.2827 -14.9488 70.7898
lradius 52.0464
lwrist 17.8202
lhand -27.8008 -15.7844
lfingers 7.12502
lthumb -1.19348 14.192
rfemur -45.769 -18.7299 4.43959
rtibia 52.947
rfoot -3.89666 -6.47091
rtoes -12.7033
lfemur -37.701 14.6283 -18.1089
ltibia 62.822
lfoot -28.5833 5.11135
ltoes -7.12469
778
root 12.015 15.1713 -2.21124 -169.59 -31.3658 177.006
lowerback 41.9519 4.3245 -3.87772
upperback 7.68108 1.47639 -0.00124716
thorax -11.5238 -0.14154 1.53012
lowerneck -23.4327 -10.9878 -13.5918
upperneck 9.3654 -12.5839 11.6777
head 8.28685 -5.4963 4.23246
rclavicle -5.33737e-014 2.54444e-014
rhumerus -15.5411 7.16194 -74.7932
rradius 73.3352
rwrist -9.08388
rhand -11.0394 -23.0198
rfingers 7.12502
rthumb 14.9825 -52.4578
lclavicle -5.33737e-014 2.54444e-014
lhumerus -20.073 -15.9191 71.0421
lradius 52.5511
lwrist 18.7988
lhand -28.4913 -15.5992
lfingers 7.12502
lthumb -1.86042 14.3724
rfemur -47.5268 -18.8792 5.45711
rtibia 53.1692
rfoot -4.80175 -6.76537
rtoes -14.883
lfemur -37.8766 14.1688 -19.4007
ltibia 62.8203
lfoot -29.0467 5.55124
ltoes -6.66006
779
root 11.8871 15.192 -2.19257 -169.442 -31.0402 177.097
lowerback 41.7888 4.1448 -3.93331
upperback 7.67091 1.24791 0.0281746
thorax -11.4772 -0.240467 1.69383
lowerneck -23.6654 -10.9945 -13.4923
upperneck 9.2951 -12.6128 11.7861
head 8.30637 -5.49286 4.24253
rclavicle 6.85807e-014 -3.63776e-014
rhumerus -15.8619 6.93932 -74.8892
rradius 73.4059
rwrist -9.07588
rhand -11.0034 -23.0116
rfingers 7.12502
rthumb 15.0172 -52.447
lclavicle 6.85807e-014 -3.63776e-014
lhumerus -19.6319 -17.0689 70.963
lradius 53.2451
lwrist 19.9299
lhand -28.8452 -15.1801
lfingers 7.12502
lthumb -2.20217 14.7883
rfemur -48.866 -18.1978 6.99618
rtibia 53.0532
rfoot -5.83449 -7.18533
rtoes -15.1586
lfemur -37.7689 13.8825 -19.8246
ltibia 62.8081
lfoot -29.5998 5.99424
ltoes -5.84037
